{
    "asset" : {
        "generator" : "Khronos glTF Blender I/O v3.2.40",
        "version" : "2.0"
    },
    "extensionsUsed" : [
        "KHR_materials_clearcoat",
        "KHR_materials_transmission"
    ],
    "scene" : 0,
    "scenes" : [
        {
            "name" : "Scene",
            "nodes" : [
                0
            ]
        }
    ],
    "nodes" : [
        {
            "mesh" : 0,
            "name" : "A",
            "rotation" : [
                0,
                -0.24957333505153656,
                0,
                0.9683558940887451
            ],
            "translation" : [
                -0.49255070090293884,
                2.1813747882843018,
                0.3841274082660675
            ]
        }
    ],
    "animations" : [
        {
            "channels" : [
                {
                    "sampler" : 0,
                    "target" : {
                        "node" : 0,
                        "path" : "translation"
                    }
                },
                {
                    "sampler" : 1,
                    "target" : {
                        "node" : 0,
                        "path" : "rotation"
                    }
                }
            ],
            "name" : "AAction",
            "samplers" : [
                {
                    "input" : 3,
                    "interpolation" : "LINEAR",
                    "output" : 4
                },
                {
                    "input" : 3,
                    "interpolation" : "LINEAR",
                    "output" : 5
                }
            ]
        }
    ],
    "materials" : [
        {
            "doubleSided" : true,
            "emissiveFactor" : [
                0.09000000357627869,
                0.007177105458661126,
                0.008428287617496144
            ],
            "extensions" : {
                "KHR_materials_clearcoat" : {
                    "clearcoatFactor" : 1,
                    "clearcoatRoughnessFactor" : 0.202727273106575
                },
                "KHR_materials_transmission" : {
                    "transmissionFactor" : 0.20909090340137482
                }
            },
            "name" : "Material",
            "pbrMetallicRoughness" : {
                "baseColorFactor" : [
                    0.5986174941062927,
                    0,
                    0.030224718153476715,
                    1
                ],
                "metallicFactor" : 0,
                "roughnessFactor" : 0
            }
        }
    ],
    "meshes" : [
        {
            "name" : "CUCurve.001",
            "primitives" : [
                {
                    "attributes" : {
                        "POSITION" : 0,
                        "NORMAL" : 1
                    },
                    "indices" : 2,
                    "material" : 0
                }
            ]
        }
    ],
    "accessors" : [
        {
            "bufferView" : 0,
            "componentType" : 5126,
            "count" : 892,
            "max" : [
                1.7047319412231445,
                1.418491244316101,
                0.794441282749176
            ],
            "min" : [
                -1.2951775789260864,
                -2.155357837677002,
                -0.7174656391143799
            ],
            "type" : "VEC3"
        },
        {
            "bufferView" : 1,
            "componentType" : 5126,
            "count" : 892,
            "type" : "VEC3"
        },
        {
            "bufferView" : 2,
            "componentType" : 5123,
            "count" : 2640,
            "type" : "SCALAR"
        },
        {
            "bufferView" : 3,
            "componentType" : 5126,
            "count" : 320,
            "max" : [
                10.666666666666666
            ],
            "min" : [
                0.03333333333333333
            ],
            "type" : "SCALAR"
        },
        {
            "bufferView" : 4,
            "componentType" : 5126,
            "count" : 320,
            "type" : "VEC3"
        },
        {
            "bufferView" : 5,
            "componentType" : 5126,
            "count" : 320,
            "type" : "VEC4"
        }
    ],
    "bufferViews" : [
        {
            "buffer" : 0,
            "byteLength" : 10704,
            "byteOffset" : 0
        },
        {
            "buffer" : 0,
            "byteLength" : 10704,
            "byteOffset" : 10704
        },
        {
            "buffer" : 0,
            "byteLength" : 5280,
            "byteOffset" : 21408
        },
        {
            "buffer" : 0,
            "byteLength" : 1280,
            "byteOffset" : 26688
        },
        {
            "buffer" : 0,
            "byteLength" : 3840,
            "byteOffset" : 27968
        },
        {
            "buffer" : 0,
            "byteLength" : 5120,
            "byteOffset" : 31808
        }
    ],
    "buffers" : [
        {
            "byteLength" : 36928,
            "uri" : "AD-logo.bin"
        }
    ]
}
