{
    "asset" : {
        "generator" : "Khronos glTF Blender I/O v3.2.40",
        "version" : "2.0"
    },
    "extensionsUsed" : [
        "KHR_materials_transmission",
        "KHR_materials_clearcoat"
    ],
    "scene" : 0,
    "scenes" : [
        {
            "name" : "Scene",
            "nodes" : [
                1,
                2,
                3
            ]
        }
    ],
    "nodes" : [
        {
            "mesh" : 0,
            "name" : "Tilda",
            "rotation" : [
                0.7040581703186035,
                -0.06558962166309357,
                0.06558963656425476,
                0.7040583491325378
            ],
            "translation" : [
                -1.5152151584625244,
                3.284081220626831,
                0.32174399495124817
            ]
        },
        {
            "children" : [
                0
            ],
            "mesh" : 1,
            "name" : "A",
            "rotation" : [
                -0.0050994232296943665,
                -0.2520464062690735,
                0.0027573020197451115,
                0.96769779920578
            ],
            "translation" : [
                -0.5003909468650818,
                2.1871161460876465,
                0.36014291644096375
            ]
        },
        {
            "camera" : 0,
            "name" : "CamBldner",
            "rotation" : [
                -0.02771870233118534,
                -0.3208431303501129,
                -0.0005944238509982824,
                0.9467265009880066
            ],
            "scale" : [
                2.5,
                1,
                1
            ],
            "translation" : [
                -6.262878894805908,
                2.068051338195801,
                4.474386215209961
            ]
        },
        {
            "mesh" : 2,
            "name" : "PlaneBlender",
            "rotation" : [
                0,
                -0.030806198716163635,
                0,
                0.9995253682136536
            ]
        }
    ],
    "cameras" : [
        {
            "name" : "Camera.001",
            "perspective" : {
                "aspectRatio" : 1,
                "yfov" : 1.6978725194931028,
                "zfar" : 100,
                "znear" : 0.10000000149011612
            },
            "type" : "perspective"
        }
    ],
    "animations" : [
        {
            "channels" : [
                {
                    "sampler" : 0,
                    "target" : {
                        "node" : 1,
                        "path" : "translation"
                    }
                },
                {
                    "sampler" : 1,
                    "target" : {
                        "node" : 1,
                        "path" : "rotation"
                    }
                }
            ],
            "name" : "AAction",
            "samplers" : [
                {
                    "input" : 12,
                    "interpolation" : "LINEAR",
                    "output" : 13
                },
                {
                    "input" : 12,
                    "interpolation" : "LINEAR",
                    "output" : 14
                }
            ]
        },
        {
            "channels" : [
                {
                    "sampler" : 0,
                    "target" : {
                        "node" : 0,
                        "path" : "translation"
                    }
                },
                {
                    "sampler" : 1,
                    "target" : {
                        "node" : 0,
                        "path" : "rotation"
                    }
                },
                {
                    "sampler" : 2,
                    "target" : {
                        "node" : 0,
                        "path" : "scale"
                    }
                }
            ],
            "name" : "Tilda",
            "samplers" : [
                {
                    "input" : 15,
                    "interpolation" : "LINEAR",
                    "output" : 16
                },
                {
                    "input" : 15,
                    "interpolation" : "LINEAR",
                    "output" : 17
                },
                {
                    "input" : 15,
                    "interpolation" : "LINEAR",
                    "output" : 18
                }
            ]
        },
        {
            "channels" : [
                {
                    "sampler" : 0,
                    "target" : {
                        "node" : 2,
                        "path" : "translation"
                    }
                },
                {
                    "sampler" : 1,
                    "target" : {
                        "node" : 2,
                        "path" : "rotation"
                    }
                },
                {
                    "sampler" : 2,
                    "target" : {
                        "node" : 2,
                        "path" : "scale"
                    }
                }
            ],
            "name" : "CameraAction.001",
            "samplers" : [
                {
                    "input" : 19,
                    "interpolation" : "LINEAR",
                    "output" : 20
                },
                {
                    "input" : 21,
                    "interpolation" : "LINEAR",
                    "output" : 22
                },
                {
                    "input" : 19,
                    "interpolation" : "LINEAR",
                    "output" : 23
                }
            ]
        },
        {
            "channels" : [
                {
                    "sampler" : 0,
                    "target" : {
                        "node" : 3,
                        "path" : "translation"
                    }
                },
                {
                    "sampler" : 1,
                    "target" : {
                        "node" : 3,
                        "path" : "rotation"
                    }
                },
                {
                    "sampler" : 2,
                    "target" : {
                        "node" : 3,
                        "path" : "scale"
                    }
                }
            ],
            "name" : "PlaneBlender",
            "samplers" : [
                {
                    "input" : 15,
                    "interpolation" : "LINEAR",
                    "output" : 24
                },
                {
                    "input" : 15,
                    "interpolation" : "LINEAR",
                    "output" : 25
                },
                {
                    "input" : 15,
                    "interpolation" : "LINEAR",
                    "output" : 26
                }
            ]
        }
    ],
    "materials" : [
        {
            "doubleSided" : true,
            "emissiveFactor" : [
                1,
                1,
                1
            ],
            "extensions" : {
                "KHR_materials_transmission" : {
                    "transmissionFactor" : 0.3636363744735718
                }
            },
            "name" : "Red",
            "pbrMetallicRoughness" : {
                "baseColorFactor" : [
                    0.9979082942008972,
                    0,
                    0,
                    1
                ],
                "metallicFactor" : 0,
                "roughnessFactor" : 0
            }
        },
        {
            "doubleSided" : true,
            "emissiveFactor" : [
                0.09000000357627869,
                0.007177105458661126,
                0.008428287617496144
            ],
            "extensions" : {
                "KHR_materials_clearcoat" : {
                    "clearcoatFactor" : 1,
                    "clearcoatRoughnessFactor" : 0.202727273106575
                },
                "KHR_materials_transmission" : {
                    "transmissionFactor" : 0.20909090340137482
                }
            },
            "name" : "Material",
            "pbrMetallicRoughness" : {
                "baseColorFactor" : [
                    0.5986174941062927,
                    0,
                    0.030224718153476715,
                    1
                ],
                "metallicFactor" : 0,
                "roughnessFactor" : 0
            }
        },
        {
            "doubleSided" : true,
            "emissiveFactor" : [
                0.0566100086802237,
                0,
                0.0006406801836532222
            ],
            "extensions" : {
                "KHR_materials_clearcoat" : {
                    "clearcoatFactor" : 0.6784034371376038,
                    "clearcoatRoughnessFactor" : 1
                }
            },
            "name" : "floor",
            "pbrMetallicRoughness" : {
                "baseColorFactor" : [
                    0.31495270133018494,
                    0,
                    0,
                    1
                ],
                "roughnessFactor" : 0.1036585345864296
            }
        }
    ],
    "meshes" : [
        {
            "name" : "CUCurve",
            "primitives" : [
                {
                    "attributes" : {
                        "POSITION" : 0,
                        "NORMAL" : 1,
                        "TEXCOORD_0" : 2
                    },
                    "indices" : 3,
                    "material" : 0
                }
            ]
        },
        {
            "name" : "CUCurve.001",
            "primitives" : [
                {
                    "attributes" : {
                        "POSITION" : 4,
                        "NORMAL" : 5,
                        "TEXCOORD_0" : 6
                    },
                    "indices" : 7,
                    "material" : 1
                }
            ]
        },
        {
            "name" : "Plane",
            "primitives" : [
                {
                    "attributes" : {
                        "POSITION" : 8,
                        "NORMAL" : 9,
                        "TEXCOORD_0" : 10
                    },
                    "indices" : 11,
                    "material" : 2
                }
            ]
        }
    ],
    "accessors" : [
        {
            "bufferView" : 0,
            "componentType" : 5126,
            "count" : 416,
            "max" : [
                0.46036648750305176,
                0.5046635866165161,
                2.601144313812256
            ],
            "min" : [
                -0.4296039044857025,
                -0.49533626437187195,
                1.8632484674453735
            ],
            "type" : "VEC3"
        },
        {
            "bufferView" : 1,
            "componentType" : 5126,
            "count" : 416,
            "type" : "VEC3"
        },
        {
            "bufferView" : 2,
            "componentType" : 5126,
            "count" : 416,
            "type" : "VEC2"
        },
        {
            "bufferView" : 3,
            "componentType" : 5123,
            "count" : 1200,
            "type" : "SCALAR"
        },
        {
            "bufferView" : 4,
            "componentType" : 5126,
            "count" : 964,
            "max" : [
                1.4342808723449707,
                1.420880913734436,
                1.3548840284347534
            ],
            "min" : [
                -1.5656286478042603,
                -2.152968168258667,
                -0.15702280402183533
            ],
            "type" : "VEC3"
        },
        {
            "bufferView" : 5,
            "componentType" : 5126,
            "count" : 964,
            "type" : "VEC3"
        },
        {
            "bufferView" : 6,
            "componentType" : 5126,
            "count" : 964,
            "type" : "VEC2"
        },
        {
            "bufferView" : 7,
            "componentType" : 5123,
            "count" : 2640,
            "type" : "SCALAR"
        },
        {
            "bufferView" : 8,
            "componentType" : 5126,
            "count" : 48,
            "max" : [
                62.87317657470703,
                34.871131896972656,
                65.04718017578125
            ],
            "min" : [
                -65.83390808105469,
                0.005209770984947681,
                -64.2228775024414
            ],
            "type" : "VEC3"
        },
        {
            "bufferView" : 9,
            "componentType" : 5126,
            "count" : 48,
            "type" : "VEC3"
        },
        {
            "bufferView" : 10,
            "componentType" : 5126,
            "count" : 48,
            "type" : "VEC2"
        },
        {
            "bufferView" : 11,
            "componentType" : 5123,
            "count" : 138,
            "type" : "SCALAR"
        },
        {
            "bufferView" : 12,
            "componentType" : 5126,
            "count" : 320,
            "max" : [
                10.666666666666666
            ],
            "min" : [
                0.03333333333333333
            ],
            "type" : "SCALAR"
        },
        {
            "bufferView" : 13,
            "componentType" : 5126,
            "count" : 320,
            "type" : "VEC3"
        },
        {
            "bufferView" : 14,
            "componentType" : 5126,
            "count" : 320,
            "type" : "VEC4"
        },
        {
            "bufferView" : 15,
            "componentType" : 5126,
            "count" : 630,
            "max" : [
                21
            ],
            "min" : [
                0.03333333333333333
            ],
            "type" : "SCALAR"
        },
        {
            "bufferView" : 16,
            "componentType" : 5126,
            "count" : 630,
            "type" : "VEC3"
        },
        {
            "bufferView" : 17,
            "componentType" : 5126,
            "count" : 630,
            "type" : "VEC4"
        },
        {
            "bufferView" : 18,
            "componentType" : 5126,
            "count" : 630,
            "type" : "VEC3"
        },
        {
            "bufferView" : 19,
            "componentType" : 5126,
            "count" : 532,
            "max" : [
                21
            ],
            "min" : [
                3.3
            ],
            "type" : "SCALAR"
        },
        {
            "bufferView" : 20,
            "componentType" : 5126,
            "count" : 532,
            "type" : "VEC3"
        },
        {
            "bufferView" : 21,
            "componentType" : 5126,
            "count" : 502,
            "max" : [
                20
            ],
            "min" : [
                3.3
            ],
            "type" : "SCALAR"
        },
        {
            "bufferView" : 22,
            "componentType" : 5126,
            "count" : 502,
            "type" : "VEC4"
        },
        {
            "bufferView" : 23,
            "componentType" : 5126,
            "count" : 532,
            "type" : "VEC3"
        },
        {
            "bufferView" : 24,
            "componentType" : 5126,
            "count" : 630,
            "type" : "VEC3"
        },
        {
            "bufferView" : 25,
            "componentType" : 5126,
            "count" : 630,
            "type" : "VEC4"
        },
        {
            "bufferView" : 26,
            "componentType" : 5126,
            "count" : 630,
            "type" : "VEC3"
        }
    ],
    "bufferViews" : [
        {
            "buffer" : 0,
            "byteLength" : 4992,
            "byteOffset" : 0
        },
        {
            "buffer" : 0,
            "byteLength" : 4992,
            "byteOffset" : 4992
        },
        {
            "buffer" : 0,
            "byteLength" : 3328,
            "byteOffset" : 9984
        },
        {
            "buffer" : 0,
            "byteLength" : 2400,
            "byteOffset" : 13312
        },
        {
            "buffer" : 0,
            "byteLength" : 11568,
            "byteOffset" : 15712
        },
        {
            "buffer" : 0,
            "byteLength" : 11568,
            "byteOffset" : 27280
        },
        {
            "buffer" : 0,
            "byteLength" : 7712,
            "byteOffset" : 38848
        },
        {
            "buffer" : 0,
            "byteLength" : 5280,
            "byteOffset" : 46560
        },
        {
            "buffer" : 0,
            "byteLength" : 576,
            "byteOffset" : 51840
        },
        {
            "buffer" : 0,
            "byteLength" : 576,
            "byteOffset" : 52416
        },
        {
            "buffer" : 0,
            "byteLength" : 384,
            "byteOffset" : 52992
        },
        {
            "buffer" : 0,
            "byteLength" : 276,
            "byteOffset" : 53376
        },
        {
            "buffer" : 0,
            "byteLength" : 1280,
            "byteOffset" : 53652
        },
        {
            "buffer" : 0,
            "byteLength" : 3840,
            "byteOffset" : 54932
        },
        {
            "buffer" : 0,
            "byteLength" : 5120,
            "byteOffset" : 58772
        },
        {
            "buffer" : 0,
            "byteLength" : 2520,
            "byteOffset" : 63892
        },
        {
            "buffer" : 0,
            "byteLength" : 7560,
            "byteOffset" : 66412
        },
        {
            "buffer" : 0,
            "byteLength" : 10080,
            "byteOffset" : 73972
        },
        {
            "buffer" : 0,
            "byteLength" : 7560,
            "byteOffset" : 84052
        },
        {
            "buffer" : 0,
            "byteLength" : 2128,
            "byteOffset" : 91612
        },
        {
            "buffer" : 0,
            "byteLength" : 6384,
            "byteOffset" : 93740
        },
        {
            "buffer" : 0,
            "byteLength" : 2008,
            "byteOffset" : 100124
        },
        {
            "buffer" : 0,
            "byteLength" : 8032,
            "byteOffset" : 102132
        },
        {
            "buffer" : 0,
            "byteLength" : 6384,
            "byteOffset" : 110164
        },
        {
            "buffer" : 0,
            "byteLength" : 7560,
            "byteOffset" : 116548
        },
        {
            "buffer" : 0,
            "byteLength" : 10080,
            "byteOffset" : 124108
        },
        {
            "buffer" : 0,
            "byteLength" : 7560,
            "byteOffset" : 134188
        }
    ],
    "buffers" : [
        {
            "byteLength" : 141748,
            "uri" : "AD-logo.bin"
        }
    ]
}
