{
    "asset" : {
        "generator" : "Khronos glTF Blender I/O v3.2.40",
        "version" : "2.0"
    },
    "extensionsUsed" : [
        "KHR_materials_transmission",
        "KHR_materials_clearcoat"
    ],
    "scene" : 0,
    "scenes" : [
        {
            "name" : "Scene",
            "nodes" : [
                1,
                3,
                4
            ]
        }
    ],
    "nodes" : [
        {
            "mesh" : 0,
            "name" : "Tilda",
            "rotation" : [
                0.7040581107139587,
                -0.06558962166309357,
                0.06558962166309357,
                0.7040583491325378
            ],
            "translation" : [
                -1.515215516090393,
                3.2840819358825684,
                0.3217441439628601
            ]
        },
        {
            "children" : [
                0
            ],
            "mesh" : 1,
            "name" : "A",
            "rotation" : [
                0.00017349267727695405,
                -0.1988079696893692,
                -0.0008552445797249675,
                0.980038046836853
            ],
            "translation" : [
                -0.5350470542907715,
                6.974025726318359,
                0.18686538934707642
            ]
        },
        {
            "mesh" : 2,
            "name" : "CubeCamera",
            "rotation" : [
                0.03197357803583145,
                0.32593420147895813,
                0.005784393288195133,
                0.9448338747024536
            ],
            "scale" : [
                0.685766339302063,
                0.9998834133148193,
                0.8306369781494141
            ],
            "translation" : [
                0.004958841018378735,
                0.036392942070961,
                0.3122805953025818
            ]
        },
        {
            "camera" : 0,
            "children" : [
                2
            ],
            "name" : "CamBldner",
            "rotation" : [
                -0.02771870233118534,
                -0.3208431303501129,
                -0.0005944238509982824,
                0.9467265009880066
            ],
            "scale" : [
                2.5,
                1,
                1
            ],
            "translation" : [
                -6.262878894805908,
                2.068051338195801,
                4.474386215209961
            ]
        },
        {
            "mesh" : 3,
            "name" : "PlaneBlender",
            "rotation" : [
                0,
                -0.030806198716163635,
                0,
                0.9995253682136536
            ]
        }
    ],
    "cameras" : [
        {
            "name" : "Camera.001",
            "perspective" : {
                "aspectRatio" : 1,
                "yfov" : 1.6978725194931028,
                "zfar" : 100,
                "znear" : 0.10000000149011612
            },
            "type" : "perspective"
        }
    ],
    "animations" : [
        {
            "channels" : [
                {
                    "sampler" : 0,
                    "target" : {
                        "node" : 1,
                        "path" : "translation"
                    }
                },
                {
                    "sampler" : 1,
                    "target" : {
                        "node" : 1,
                        "path" : "rotation"
                    }
                }
            ],
            "name" : "AAction",
            "samplers" : [
                {
                    "input" : 16,
                    "interpolation" : "LINEAR",
                    "output" : 17
                },
                {
                    "input" : 16,
                    "interpolation" : "LINEAR",
                    "output" : 18
                }
            ]
        },
        {
            "channels" : [
                {
                    "sampler" : 0,
                    "target" : {
                        "node" : 0,
                        "path" : "translation"
                    }
                },
                {
                    "sampler" : 1,
                    "target" : {
                        "node" : 0,
                        "path" : "rotation"
                    }
                },
                {
                    "sampler" : 2,
                    "target" : {
                        "node" : 0,
                        "path" : "scale"
                    }
                }
            ],
            "name" : "Tilda",
            "samplers" : [
                {
                    "input" : 19,
                    "interpolation" : "LINEAR",
                    "output" : 20
                },
                {
                    "input" : 19,
                    "interpolation" : "LINEAR",
                    "output" : 21
                },
                {
                    "input" : 19,
                    "interpolation" : "LINEAR",
                    "output" : 22
                }
            ]
        },
        {
            "channels" : [
                {
                    "sampler" : 0,
                    "target" : {
                        "node" : 3,
                        "path" : "translation"
                    }
                },
                {
                    "sampler" : 1,
                    "target" : {
                        "node" : 3,
                        "path" : "rotation"
                    }
                },
                {
                    "sampler" : 2,
                    "target" : {
                        "node" : 3,
                        "path" : "scale"
                    }
                }
            ],
            "name" : "CameraAction.001",
            "samplers" : [
                {
                    "input" : 23,
                    "interpolation" : "LINEAR",
                    "output" : 24
                },
                {
                    "input" : 25,
                    "interpolation" : "LINEAR",
                    "output" : 26
                },
                {
                    "input" : 23,
                    "interpolation" : "LINEAR",
                    "output" : 27
                }
            ]
        },
        {
            "channels" : [
                {
                    "sampler" : 0,
                    "target" : {
                        "node" : 2,
                        "path" : "translation"
                    }
                },
                {
                    "sampler" : 1,
                    "target" : {
                        "node" : 2,
                        "path" : "rotation"
                    }
                },
                {
                    "sampler" : 2,
                    "target" : {
                        "node" : 2,
                        "path" : "scale"
                    }
                }
            ],
            "name" : "CubeCamera",
            "samplers" : [
                {
                    "input" : 19,
                    "interpolation" : "LINEAR",
                    "output" : 28
                },
                {
                    "input" : 19,
                    "interpolation" : "LINEAR",
                    "output" : 29
                },
                {
                    "input" : 19,
                    "interpolation" : "LINEAR",
                    "output" : 30
                }
            ]
        },
        {
            "channels" : [
                {
                    "sampler" : 0,
                    "target" : {
                        "node" : 4,
                        "path" : "translation"
                    }
                },
                {
                    "sampler" : 1,
                    "target" : {
                        "node" : 4,
                        "path" : "rotation"
                    }
                },
                {
                    "sampler" : 2,
                    "target" : {
                        "node" : 4,
                        "path" : "scale"
                    }
                }
            ],
            "name" : "PlaneBlender",
            "samplers" : [
                {
                    "input" : 19,
                    "interpolation" : "LINEAR",
                    "output" : 31
                },
                {
                    "input" : 19,
                    "interpolation" : "LINEAR",
                    "output" : 32
                },
                {
                    "input" : 19,
                    "interpolation" : "LINEAR",
                    "output" : 33
                }
            ]
        }
    ],
    "materials" : [
        {
            "doubleSided" : true,
            "emissiveFactor" : [
                1,
                1,
                1
            ],
            "extensions" : {
                "KHR_materials_transmission" : {
                    "transmissionFactor" : 0.3636363744735718
                }
            },
            "name" : "Red",
            "pbrMetallicRoughness" : {
                "baseColorFactor" : [
                    0.9979082942008972,
                    0,
                    0,
                    1
                ],
                "metallicFactor" : 0,
                "roughnessFactor" : 0
            }
        },
        {
            "doubleSided" : true,
            "emissiveFactor" : [
                0.09000000357627869,
                0.007177105458661126,
                0.008428287617496144
            ],
            "extensions" : {
                "KHR_materials_clearcoat" : {
                    "clearcoatFactor" : 1,
                    "clearcoatRoughnessFactor" : 0.202727273106575
                },
                "KHR_materials_transmission" : {
                    "transmissionFactor" : 0.20909090340137482
                }
            },
            "name" : "Material",
            "pbrMetallicRoughness" : {
                "baseColorFactor" : [
                    0.5986174941062927,
                    0,
                    0.030224718153476715,
                    1
                ],
                "metallicFactor" : 0,
                "roughnessFactor" : 0
            }
        },
        {
            "doubleSided" : true,
            "emissiveFactor" : [
                0.0566100086802237,
                0,
                0.0006406801836532222
            ],
            "extensions" : {
                "KHR_materials_clearcoat" : {
                    "clearcoatFactor" : 0.6784034371376038,
                    "clearcoatRoughnessFactor" : 1
                }
            },
            "name" : "floor",
            "pbrMetallicRoughness" : {
                "baseColorFactor" : [
                    0.31495270133018494,
                    0,
                    0,
                    1
                ],
                "roughnessFactor" : 0.1036585345864296
            }
        }
    ],
    "meshes" : [
        {
            "name" : "CUCurve",
            "primitives" : [
                {
                    "attributes" : {
                        "POSITION" : 0,
                        "NORMAL" : 1,
                        "TEXCOORD_0" : 2
                    },
                    "indices" : 3,
                    "material" : 0
                }
            ]
        },
        {
            "name" : "CUCurve.001",
            "primitives" : [
                {
                    "attributes" : {
                        "POSITION" : 4,
                        "NORMAL" : 5,
                        "TEXCOORD_0" : 6
                    },
                    "indices" : 7,
                    "material" : 1
                }
            ]
        },
        {
            "name" : "Cube",
            "primitives" : [
                {
                    "attributes" : {
                        "POSITION" : 8,
                        "NORMAL" : 9,
                        "TEXCOORD_0" : 10
                    },
                    "indices" : 11
                }
            ]
        },
        {
            "name" : "Plane",
            "primitives" : [
                {
                    "attributes" : {
                        "POSITION" : 12,
                        "NORMAL" : 13,
                        "TEXCOORD_0" : 14
                    },
                    "indices" : 15,
                    "material" : 2
                }
            ]
        }
    ],
    "accessors" : [
        {
            "bufferView" : 0,
            "componentType" : 5126,
            "count" : 416,
            "max" : [
                0.46036648750305176,
                0.5046635866165161,
                2.601144313812256
            ],
            "min" : [
                -0.4296039044857025,
                -0.49533626437187195,
                1.8632484674453735
            ],
            "type" : "VEC3"
        },
        {
            "bufferView" : 1,
            "componentType" : 5126,
            "count" : 416,
            "type" : "VEC3"
        },
        {
            "bufferView" : 2,
            "componentType" : 5126,
            "count" : 416,
            "type" : "VEC2"
        },
        {
            "bufferView" : 3,
            "componentType" : 5123,
            "count" : 1200,
            "type" : "SCALAR"
        },
        {
            "bufferView" : 4,
            "componentType" : 5126,
            "count" : 964,
            "max" : [
                1.4342808723449707,
                1.420880913734436,
                1.3548840284347534
            ],
            "min" : [
                -1.5656286478042603,
                -2.152968168258667,
                -0.15702280402183533
            ],
            "type" : "VEC3"
        },
        {
            "bufferView" : 5,
            "componentType" : 5126,
            "count" : 964,
            "type" : "VEC3"
        },
        {
            "bufferView" : 6,
            "componentType" : 5126,
            "count" : 964,
            "type" : "VEC2"
        },
        {
            "bufferView" : 7,
            "componentType" : 5123,
            "count" : 2640,
            "type" : "SCALAR"
        },
        {
            "bufferView" : 8,
            "componentType" : 5126,
            "count" : 24,
            "max" : [
                1,
                1,
                1
            ],
            "min" : [
                -1,
                -1,
                -1
            ],
            "type" : "VEC3"
        },
        {
            "bufferView" : 9,
            "componentType" : 5126,
            "count" : 24,
            "type" : "VEC3"
        },
        {
            "bufferView" : 10,
            "componentType" : 5126,
            "count" : 24,
            "type" : "VEC2"
        },
        {
            "bufferView" : 11,
            "componentType" : 5123,
            "count" : 36,
            "type" : "SCALAR"
        },
        {
            "bufferView" : 12,
            "componentType" : 5126,
            "count" : 48,
            "max" : [
                62.87317657470703,
                34.871131896972656,
                65.04718017578125
            ],
            "min" : [
                -65.83390808105469,
                0.005209770984947681,
                -64.2228775024414
            ],
            "type" : "VEC3"
        },
        {
            "bufferView" : 13,
            "componentType" : 5126,
            "count" : 48,
            "type" : "VEC3"
        },
        {
            "bufferView" : 14,
            "componentType" : 5126,
            "count" : 48,
            "type" : "VEC2"
        },
        {
            "bufferView" : 15,
            "componentType" : 5123,
            "count" : 138,
            "type" : "SCALAR"
        },
        {
            "bufferView" : 16,
            "componentType" : 5126,
            "count" : 320,
            "max" : [
                10.666666666666666
            ],
            "min" : [
                0.03333333333333333
            ],
            "type" : "SCALAR"
        },
        {
            "bufferView" : 17,
            "componentType" : 5126,
            "count" : 320,
            "type" : "VEC3"
        },
        {
            "bufferView" : 18,
            "componentType" : 5126,
            "count" : 320,
            "type" : "VEC4"
        },
        {
            "bufferView" : 19,
            "componentType" : 5126,
            "count" : 630,
            "max" : [
                21
            ],
            "min" : [
                0.03333333333333333
            ],
            "type" : "SCALAR"
        },
        {
            "bufferView" : 20,
            "componentType" : 5126,
            "count" : 630,
            "type" : "VEC3"
        },
        {
            "bufferView" : 21,
            "componentType" : 5126,
            "count" : 630,
            "type" : "VEC4"
        },
        {
            "bufferView" : 22,
            "componentType" : 5126,
            "count" : 630,
            "type" : "VEC3"
        },
        {
            "bufferView" : 23,
            "componentType" : 5126,
            "count" : 532,
            "max" : [
                21
            ],
            "min" : [
                3.3
            ],
            "type" : "SCALAR"
        },
        {
            "bufferView" : 24,
            "componentType" : 5126,
            "count" : 532,
            "type" : "VEC3"
        },
        {
            "bufferView" : 25,
            "componentType" : 5126,
            "count" : 502,
            "max" : [
                20
            ],
            "min" : [
                3.3
            ],
            "type" : "SCALAR"
        },
        {
            "bufferView" : 26,
            "componentType" : 5126,
            "count" : 502,
            "type" : "VEC4"
        },
        {
            "bufferView" : 27,
            "componentType" : 5126,
            "count" : 532,
            "type" : "VEC3"
        },
        {
            "bufferView" : 28,
            "componentType" : 5126,
            "count" : 630,
            "type" : "VEC3"
        },
        {
            "bufferView" : 29,
            "componentType" : 5126,
            "count" : 630,
            "type" : "VEC4"
        },
        {
            "bufferView" : 30,
            "componentType" : 5126,
            "count" : 630,
            "type" : "VEC3"
        },
        {
            "bufferView" : 31,
            "componentType" : 5126,
            "count" : 630,
            "type" : "VEC3"
        },
        {
            "bufferView" : 32,
            "componentType" : 5126,
            "count" : 630,
            "type" : "VEC4"
        },
        {
            "bufferView" : 33,
            "componentType" : 5126,
            "count" : 630,
            "type" : "VEC3"
        }
    ],
    "bufferViews" : [
        {
            "buffer" : 0,
            "byteLength" : 4992,
            "byteOffset" : 0
        },
        {
            "buffer" : 0,
            "byteLength" : 4992,
            "byteOffset" : 4992
        },
        {
            "buffer" : 0,
            "byteLength" : 3328,
            "byteOffset" : 9984
        },
        {
            "buffer" : 0,
            "byteLength" : 2400,
            "byteOffset" : 13312
        },
        {
            "buffer" : 0,
            "byteLength" : 11568,
            "byteOffset" : 15712
        },
        {
            "buffer" : 0,
            "byteLength" : 11568,
            "byteOffset" : 27280
        },
        {
            "buffer" : 0,
            "byteLength" : 7712,
            "byteOffset" : 38848
        },
        {
            "buffer" : 0,
            "byteLength" : 5280,
            "byteOffset" : 46560
        },
        {
            "buffer" : 0,
            "byteLength" : 288,
            "byteOffset" : 51840
        },
        {
            "buffer" : 0,
            "byteLength" : 288,
            "byteOffset" : 52128
        },
        {
            "buffer" : 0,
            "byteLength" : 192,
            "byteOffset" : 52416
        },
        {
            "buffer" : 0,
            "byteLength" : 72,
            "byteOffset" : 52608
        },
        {
            "buffer" : 0,
            "byteLength" : 576,
            "byteOffset" : 52680
        },
        {
            "buffer" : 0,
            "byteLength" : 576,
            "byteOffset" : 53256
        },
        {
            "buffer" : 0,
            "byteLength" : 384,
            "byteOffset" : 53832
        },
        {
            "buffer" : 0,
            "byteLength" : 276,
            "byteOffset" : 54216
        },
        {
            "buffer" : 0,
            "byteLength" : 1280,
            "byteOffset" : 54492
        },
        {
            "buffer" : 0,
            "byteLength" : 3840,
            "byteOffset" : 55772
        },
        {
            "buffer" : 0,
            "byteLength" : 5120,
            "byteOffset" : 59612
        },
        {
            "buffer" : 0,
            "byteLength" : 2520,
            "byteOffset" : 64732
        },
        {
            "buffer" : 0,
            "byteLength" : 7560,
            "byteOffset" : 67252
        },
        {
            "buffer" : 0,
            "byteLength" : 10080,
            "byteOffset" : 74812
        },
        {
            "buffer" : 0,
            "byteLength" : 7560,
            "byteOffset" : 84892
        },
        {
            "buffer" : 0,
            "byteLength" : 2128,
            "byteOffset" : 92452
        },
        {
            "buffer" : 0,
            "byteLength" : 6384,
            "byteOffset" : 94580
        },
        {
            "buffer" : 0,
            "byteLength" : 2008,
            "byteOffset" : 100964
        },
        {
            "buffer" : 0,
            "byteLength" : 8032,
            "byteOffset" : 102972
        },
        {
            "buffer" : 0,
            "byteLength" : 6384,
            "byteOffset" : 111004
        },
        {
            "buffer" : 0,
            "byteLength" : 7560,
            "byteOffset" : 117388
        },
        {
            "buffer" : 0,
            "byteLength" : 10080,
            "byteOffset" : 124948
        },
        {
            "buffer" : 0,
            "byteLength" : 7560,
            "byteOffset" : 135028
        },
        {
            "buffer" : 0,
            "byteLength" : 7560,
            "byteOffset" : 142588
        },
        {
            "buffer" : 0,
            "byteLength" : 10080,
            "byteOffset" : 150148
        },
        {
            "buffer" : 0,
            "byteLength" : 7560,
            "byteOffset" : 160228
        }
    ],
    "buffers" : [
        {
            "byteLength" : 167788,
            "uri" : "AD-logo.bin"
        }
    ]
}
